<svg xmlns="http://www.w3.org/2000/svg" width="22" height="19">
  <path fill-rule="evenodd" fill="#EB3A28" d="M14.021 9.195v-.187c0-.814-.298-1.518-.892-2.113-.595-.594-1.299-.892-2.112-.892h-.141l3.145 3.192zM8.106 8.35c-.063.251-.094.47-.094.658 0 .814.297 1.518.892 2.112.594.595 1.299.893 2.113.893.187 0 .406-.031.657-.094l1.549 1.549c-.751.376-1.487.564-2.206.564-1.378 0-2.559-.493-3.544-1.479-.986-.986-1.479-2.168-1.479-3.545 0-.72.188-1.456.563-2.207L8.106 8.35zM2.168 2.434c.673.689 1.197 1.221 1.573 1.597C2.019 5.408.767 7.067-.015 9.008c.876 2.253 2.316 4.069 4.319 5.446 2.002 1.378 4.24 2.066 6.713 2.066 1.564 0 3.019-.282 4.365-.845.438.439 1.072 1.064 1.901 1.878a575.09 575.09 0 0 1 1.479 1.455l1.267-1.267L2.286-.007 1.018 1.261c.094.093.477.485 1.15 1.173zm12.393 3.029c.986.986 1.478 2.168 1.478 3.545a4.68 4.68 0 0 1-.375 1.831l2.91 2.911a12.246 12.246 0 0 0 3.427-4.742 11.602 11.602 0 0 0-4.295-5.447c-1.988-1.377-4.218-2.066-6.689-2.066-1.44 0-2.77.235-3.99.705l2.159 2.159a4.676 4.676 0 0 1 1.831-.375c1.376 0 2.558.493 3.544 1.479z"/>
</svg>
