<?xml version="1.0" encoding="UTF-8"?>
<svg xmlns="http://www.w3.org/2000/svg">
  <defs>
    <style>
      use {fill: #969696;}
      use.active {fill: #009cd6;}
      .product {fill:#009cd6;}
    </style>
    <!-- menu icons -->
    <path id="protect-template" d="M8,0l7,2.9V7.3a8.71,8.71,0,0,1-2,5.5A9.25,9.25,0,0,1,8,16a8.71,8.71,0,0,1-5-3.2A8.82,8.82,0,0,1,1,7.3V2.9ZM7,11l6-6L12,4,7,9,5,7,4,8Z"/>
    <path id="settings-template" d="M16,57.33V54.67l-2-.27a4.54,4.54,0,0,0-.71-1.51l1.25-1.6-1.87-1.87-1.6,1.25A4.57,4.57,0,0,0,9.6,50l-.27-2H6.67L6.4,50a4.54,4.54,0,0,0-1.51.71l-1.6-1.25L1.42,51.29l1.25,1.6A4.54,4.54,0,0,0,2,54.4l-2,.27v2.66l2,.27a4.54,4.54,0,0,0,.71,1.51l-1.25,1.6,1.87,1.87,1.6-1.25A4.57,4.57,0,0,0,6.4,62l.27,2H9.33l.27-2a7.38,7.38,0,0,0,1.51-.62l1.6,1.25,1.87-1.87-1.25-1.69A4.57,4.57,0,0,0,14,57.6ZM5.33,56A2.63,2.63,0,0,1,7.9,53.33H8a2.63,2.63,0,0,1,2.67,2.57V56A2.63,2.63,0,0,1,8.1,58.67H8A2.63,2.63,0,0,1,5.33,56.1Z"/>
    <path id="install-template" d="M3,19.45v8.6H9v2H0v-2H1.6v-8.6a1.39,1.39,0,0,1,.5-1,1,1,0,0,1,.9-.4H14v1.4Zm12.3,1.2c.2,0,.3.1.5.2a.75.75,0,0,1,.2.5v8a.68.68,0,0,1-.67.7H10.6c-.2,0-.3-.1-.5-.2a.74.74,0,0,1-.2-.5v-8a.68.68,0,0,1,.67-.7H15.3Zm-.7,7.4v-6H11.4v6Z"/>
    <g id="lang-template">
      <path d="M4,39.2H5.7l-.9-2.4A22.51,22.51,0,0,0,4,39.2Z"/>
      <path d="M14,32H2a2,2,0,0,0-2,2v9a2,2,0,0,0,2,2H13l3,3V34A2,2,0,0,0,14,32ZM7.9,41.6H6.5a.09.09,0,0,1-.1-.1h0A5.64,5.64,0,0,0,6,40.3a.09.09,0,0,0-.1-.1H3.5a3.09,3.09,0,0,1-.2.9c-.1.2-.1.3-.2.5H1.6a1.42,1.42,0,0,0,.2-.6c.5-1.4,1.1-2.8,1.6-4.2A12.66,12.66,0,0,0,4.1,35H5.5c.4,1.1.8,2.1,1.2,3.2S7.6,40.4,7.9,41.6Zm6.5-4.3c0,.2-.1.5-.1.7a5.1,5.1,0,0,1-.8,1.7,4.84,4.84,0,0,1-.8.7l-.1.1h0a2.74,2.74,0,0,1,.9.1v1.1h-.3a4.27,4.27,0,0,1-1.9-.4H11a3.9,3.9,0,0,1-1.5.3H8.7V40.5a4.83,4.83,0,0,0,1.2-.1A4.43,4.43,0,0,1,8.8,38H9.9c0,.2.1.3.1.5A3.27,3.27,0,0,0,11.2,40h.1a4.23,4.23,0,0,0,1.9-3H8.8V36H11V35h1.1v1h2.2A4.37,4.37,0,0,1,14.4,37.3Z"/>
    </g>
    <path id="help-template" d="M2.31,66.31A8,8,0,0,1,8,64a7.89,7.89,0,1,1-5.69,2.31Zm8.18,5.07a2.25,2.25,0,0,0,.71-1.78,3,3,0,0,0-1-2.22A3,3,0,0,0,8,66.4a3.4,3.4,0,0,0-2.31,1A2.67,2.67,0,0,0,4.8,69.6H6.4a1.92,1.92,0,0,1,.44-1.16A1.92,1.92,0,0,1,8,68a1.92,1.92,0,0,1,1.16.44A1.49,1.49,0,0,1,9.6,69.6a1.92,1.92,0,0,1-.44,1.16l-1,1A3.05,3.05,0,0,0,7.2,74v.44H8.8A5,5,0,0,1,9,73.07a2.24,2.24,0,0,1,.71-1ZM8.8,77.6V76H7.2v1.6Z"/>
    <path id="about-template" d="M2.31,82.31A8,8,0,0,1,8,80a7.89,7.89,0,1,1-5.69,2.31ZM3.47,92.53A6.18,6.18,0,0,0,8,94.4a6.18,6.18,0,0,0,4.53-1.87,6.42,6.42,0,0,0,0-9.06A6.18,6.18,0,0,0,8,81.6a6.18,6.18,0,0,0-4.53,1.87,6.42,6.42,0,0,0,0,9.06ZM7.2,85.6V84H8.8v1.6Zm0,6.4V87.2H8.8V92Z"/>
    <path id="issue-template" d="M16 8.041l-1.774 2.053.273 2.749-2.627.591-1.4 2.367-2.455-1.079-2.49 1.078-1.365-2.33-2.627-.627.239-2.749L0 8.041l1.774-2.088-.239-2.714 2.627-.591L5.527.281l2.49 1.079L10.473.281l1.4 2.367 2.627.591-.273 2.749zM9 8.5V4H7v4.5zM9 12v-2H7v2z"/>
    <g id="plus-template" transform="scale(0.4444)">
      <circle cx="18" cy="18" r="18" fill="#0288d1"/>
      <path d="M28 16h-8V8h-4v8H8v4h8v8h4v-8h8z" fill="#fff"/>
    </g>
    <g id="incognito-template">
      <circle cx="8" cy="8" r="8"/>
      <path transform="scale(0.6667)" fill="#fff" d="M12,3C9.31,3 7.41,4.22 7.41,4.22L6,9H18L16.59,4.22C16.59,4.22 14.69,3 12,3M12,11C9.27,11 5.39,11.54 5.13,11.59C4.09,11.87 3.25,12.15 2.59,12.41C1.58,12.75 1,13 1,13H23C23,13 22.42,12.75 21.41,12.41C20.75,12.15 19.89,11.87 18.84,11.59C18.84,11.59 14.82,11 12,11M7.5,14A3.5,3.5 0 0,0 4,17.5A3.5,3.5 0 0,0 7.5,21A3.5,3.5 0 0,0 11,17.5C11,17.34 11,17.18 10.97,17.03C11.29,16.96 11.63,16.9 12,16.91C12.37,16.91 12.71,16.96 13.03,17.03C13,17.18 13,17.34 13,17.5A3.5,3.5 0 0,0 16.5,21A3.5,3.5 0 0,0 20,17.5A3.5,3.5 0 0,0 16.5,14C15.03,14 13.77,14.9 13.25,16.19C12.93,16.09 12.55,16 12,16C11.45,16 11.07,16.09 10.75,16.19C10.23,14.9 8.97,14 7.5,14M7.5,15A2.5,2.5 0 0,1 10,17.5A2.5,2.5 0 0,1 7.5,20A2.5,2.5 0 0,1 5,17.5A2.5,2.5 0 0,1 7.5,15M16.5,15A2.5,2.5 0 0,1 19,17.5A2.5,2.5 0 0,1 16.5,20A2.5,2.5 0 0,1 14,17.5A2.5,2.5 0 0,1 16.5,15Z"/>
    </g>
    <!-- account menu, product items -->
    <path id="product-windows-template" class="product" d="M3.5,11.5V6.3L9.5,5v6.4Zm0,1,6,.1v6.8l-6-1.2Zm17-9.9v8.7l-10,.1V4.8Zm0,10.2v8.6l-10-1.9v-7Z"/>
    <path id="product-mac-template" class="product" d="M20,31.7c-0.7,0.2-1.3,0.8-1.6,1.5c-0.4,0.7-0.6,1.6-0.7,2.4c0,0.9,0.2,1.9,0.7,2.7
			c0.4,0.8,1.2,1.3,2,1.6c-0.3,0.9-0.7,1.8-1.2,2.6c-0.5,0.8-1.1,1.5-1.8,2c-0.5,0.4-1.2,0.5-1.8,0.5c-0.6,0-1.2-0.1-1.7-0.4
			c-0.5-0.3-1-0.4-1.5-0.4c-0.7,0.1-1.3,0.3-1.9,0.6C10.1,44.9,9.8,45,9.4,45c-0.8,0-1.6-0.4-2.3-0.9c-1.1-1.1-2-2.4-2.6-3.8
			c-0.6-1.5-0.9-3-0.9-4.6c-0.1-1.6,0.3-3.1,1.3-4.4c0.8-1.2,2.2-1.9,3.6-1.9c0.8,0,1.5,0.2,2.2,0.5c0.5,0.3,1,0.5,1.6,0.5
			c0.5,0,1-0.1,1.5-0.3c0.8-0.4,1.6-0.6,2.4-0.8c1.1,0,2.1,0.4,2.9,1.1C19.5,30.8,19.8,31.2,20,31.7z M11.9,29.5
			c0-1.1,0.5-2.2,1.2-3c0.8-0.8,1.8-1.4,2.9-1.5c0,1.1-0.4,2.2-1.1,3.1C14.1,29,13.1,29.5,11.9,29.5z"/>
    <path id="product-android-template" class="product" d="M2.4,56.6c0.3-0.3,0.7-0.4,1.1-0.4c0.4,0,0.8,0.1,1.1,0.4C4.9,56.9,5,57.3,5,57.7v6.9
			c0,0.4-0.1,0.8-0.4,1c-0.3,0.3-0.7,0.5-1.1,0.5c-0.4,0-0.8-0.1-1.1-0.4c-0.3-0.3-0.4-0.6-0.4-1v-7C2,57.3,2.1,56.9,2.4,56.6z
			 M15.5,50.3c1.6,1.1,2.5,2.9,2.5,4.8H6c-0.1-1.9,0.9-3.7,2.5-4.8L7.2,49c-0.3-0.2-0.3-0.4,0-0.7c0.2-0.2,0.5-0.2,0.7,0
			c0,0,0,0,0,0l0,0l1.5,1.6c0.8-0.5,1.7-0.7,2.6-0.7c0.9,0,1.9,0.2,2.7,0.6l1.5-1.6c0.2-0.2,0.5-0.2,0.7,0c0,0,0,0,0,0l0,0
			c0.2,0.2,0.2,0.5,0,0.7l0,0L15.5,50.3z M6,66.1v-10h12v10c0,0.6-0.4,1-1,1h-1v3.5c0,0.4-0.1,0.7-0.4,1c-0.6,0.5-1.6,0.5-2.2,0
			c-0.3-0.3-0.4-0.6-0.4-1v-3.5h-2v3.5c0,0.8-0.7,1.5-1.5,1.5c-0.4,0-0.8-0.1-1.1-0.4C8.1,71.4,8,71,8,70.7v-3.6H7
			C6.4,67.1,6,66.6,6,66.1z M10,53.1v-1H9v1H10z M15,53.1v-1h-1v1H15z M19.4,56.6c0.6-0.5,1.6-0.5,2.2,0c0.3,0.3,0.4,0.7,0.4,1.1
			v6.9c0,0.4-0.1,0.8-0.4,1c-0.3,0.3-0.7,0.4-1.1,0.5c-0.4,0-0.8-0.1-1.1-0.4c-0.3-0.3-0.4-0.6-0.4-1v-7
			C19,57.3,19.1,56.9,19.4,56.6L19.4,56.6z"/>
    <g id="product-smarttv-template" class="product">
      <path d="M22.4,75.6C22,75.2,21.5,75,21,75H3c-0.5,0-1,0.2-1.4,0.6C1.2,76,1,76.5,1,77v12c0,1.1,0.9,2,2,2h6v2H7v1h10
      v-1h-2v-2h6c0.5,0,1-0.2,1.4-0.6C22.8,90,23,89.5,23,89V77C23,76.5,22.8,76,22.4,75.6z M21,89H3V77h18V89z"/>
      <path d="M10.5,80h-4C6.2,80,6,80.2,6,80.5S6.2,81,6.5,81H8v4.5C8,85.8,8.2,86,8.5,86S9,85.8,9,85.5V81h1.5
        c0.3,0,0.5-0.2,0.5-0.5S10.8,80,10.5,80z"/>
      <path d="M16.7,80c-0.3-0.1-0.5,0-0.6,0.3l-1.5,3.8L13,80.3c-0.1-0.3-0.4-0.4-0.6-0.3c-0.3,0.1-0.4,0.4-0.3,0.6l2,5
        c0.1,0.2,0.3,0.3,0.5,0.3s0.4-0.1,0.5-0.3l2-5C17.1,80.4,16.9,80.1,16.7,80z"/>
    </g>
    <path id="product-console-template" class="product" d="M18.4,121.6c-0.4-0.4-0.9-0.6-1.4-0.6H7c-0.5,0-1,0.2-1.4,0.6C5.2,122,5,122.5,5,123v18c0,0.5,0.2,1,0.6,1.4
		C6,142.8,6.5,143,7,143h10c1.1,0,2-0.9,2-2v-18C19,122.5,18.8,122,18.4,121.6z M12,142c-0.6,0-1-0.4-1-1s0.4-1,1-1s1,0.4,1,1
		S12.6,142,12,142z M17,139H7v-16h10V139z"/>
    <path id="product-ios-template" class="product" d="M7.9,111.1l-3.7,4.4c-0.4,0.4-0.9,0.6-1.4,0.6s-1-0.2-1.4-0.5c-0.4-0.4-0.6-1-0.5-1.5v-0.3
			l1.1-9c0.1-1.3,0.7-2.5,1.6-3.4c0.9-0.8,2.1-1.3,3.3-1.3h10c1.3,0,2.5,0.5,3.4,1.4s1.5,2.1,1.6,3.4l1.1,9v0.2c0,0.5-0.2,1-0.5,1.4
			c-0.4,0.4-0.9,0.6-1.5,0.6c-0.5,0-1-0.2-1.4-0.6l-3.7-4.4C15.9,111.1,7.9,111.1,7.9,111.1z M6.9,103.1v2h-2v1h2v2h1v-2h2v-1h-2v-2
			H6.9z M14.7,104.8c-0.2,0-0.4,0.1-0.5,0.2c-0.2,0.2-0.3,0.4-0.3,0.6c0,0.4,0.3,0.7,0.7,0.7s0.7-0.3,0.7-0.7c0-0.2-0.1-0.4-0.2-0.5
			S14.8,104.8,14.7,104.8z M16.4,103.1c-0.4,0-0.7,0.3-0.7,0.7l0,0l0,0c0,0.4,0.3,0.7,0.7,0.7s0.7-0.3,0.7-0.7
			c0-0.2-0.1-0.4-0.2-0.5S16.6,103.1,16.4,103.1z M16.4,106.6c-0.2,0-0.4,0.1-0.5,0.3c-0.3,0.3-0.3,0.7,0,1c0.3,0.3,0.7,0.3,1,0
			s0.3-0.7,0-1C16.8,106.7,16.6,106.6,16.4,106.6z M18.1,104.8c-0.4,0-0.7,0.3-0.7,0.7l0,0c0,0.2,0.1,0.4,0.2,0.5
			c0.3,0.3,0.7,0.3,1,0c0.2,0,0.3-0.2,0.3-0.4c0-0.2-0.1-0.4-0.2-0.5C18.6,104.9,18.3,104.8,18.1,104.8z"/>
  </defs>
  <!-- menu icons -->
  <view id="protect" viewBox="0 0 16 16" />
    <use href="#protect-template" x="0" y="0" />
  <view id="protect-active" viewBox="16 0 16 16" />
    <use href="#protect-template" x="16" y="0" class="active" />
  <view id="install" viewBox="0 16 16 16" />
    <use href="#install-template" x="0" y="0" />
  <view id="install-active" viewBox="16 16 16 16" />
    <use href="#install-template" x="16" y="0" class="active" />
  <view id="lang" viewBox="0 32 16 16" />
    <use href="#lang-template" x="0" y="0" />
  <view id="lang-active" viewBox="16 32 16 16" />
    <use href="#lang-template" x="16" y="0" class="active" />
  <view id="settings" viewBox="0 48 16 16" />
    <use href="#settings-template" x="0" y="0" />
  <view id="settings-active" viewBox="16 48 16 16" />
    <use href="#settings-template" x="16" y="0" class="active" />
  <view id="help" viewBox="0 64 16 16" />
    <use href="#help-template" x="0" y="0" />
  <view id="help-active" viewBox="16 64 16 16" />
    <use href="#help-template" x="16" y="0" class="active" />
  <view id="about" viewBox="0 80 16 16" />
    <use href="#about-template" x="0" y="0" />
  <view id="about-active" viewBox="16 80 16 16" />
    <use href="#about-template" x="16" y="0" class="active" />
  <view id="issue" viewBox="0 96 16 16" />
    <use href="#issue-template" x="0" y="96" />
  <view id="issue-active" viewBox="16 96 16 16" />
    <use href="#issue-template" x="16" y="96" class="active" />
  <view id="plus" viewBox="0 112 16 16" />
    <use href="#plus-template" x="0" y="112"/>
  <view id="incognito" viewBox="0 128 16 16" />
    <use href="#incognito-template" x="0" y="128"/>
  <view id="incognito-active" viewBox="16 128 16 16"/>
    <use href="#incognito-template" x="16" y="128" class="active"/>
  <!-- account menu, product items -->
  <view id="product-windows" viewBox="32 0 24 24" />
    <use href="#product-windows-template" x="32" y="0" />
  <view id="product-mac" viewBox="32 24 24 24" />
    <use href="#product-mac-template" x="32" y="0" />
  <view id="product-android" viewBox="32 48 24 24" />
    <use href="#product-android-template" x="32" y="0" />
  <view id="product-smarttv" viewBox="32 72 24 24" />
    <use href="#product-smarttv-template" x="32" y="0" />
  <view id="product-console" viewBox="32 96 24 24" />
    <use href="#product-console-template" x="32" y="0" />
  <view id="product-ios" viewBox="32 120 24 24" />
    <use href="#product-ios-template" x="32" y="0" />
</svg>
