<?xml version="1.0" encoding="utf-8"?>
<!-- Generator: Adobe Illustrator 24.1.0, SVG Export Plug-In . SVG Version: 6.00 Build 0)  -->
<svg version="1.1" id="Layer_1" xmlns="http://www.w3.org/2000/svg" xmlns:xlink="http://www.w3.org/1999/xlink" x="0px" y="0px"
	 viewBox="0 0 48.1 48" style="enable-background:new 0 0 48.1 48;" xml:space="preserve">
<style type="text/css">
	.st0{fill:none;}
	.st1{fill:url(#SVGID_1_);}
	.st2{opacity:0.1;}
	.st3{fill:#640000;}
	.st4{fill:url(#SVGID_2_);}
	.st5{opacity:0.1;fill:#640000;enable-background:new    ;}
	.st6{opacity:0.3;fill:url(#SVGID_3_);enable-background:new    ;}
	.st7{fill:url(#SVGID_4_);}
	.st8{opacity:0.4;fill:url(#SVGID_5_);enable-background:new    ;}
	.st9{opacity:0.3;fill:url(#SVGID_6_);enable-background:new    ;}
	.st10{opacity:0.5;fill:url(#SVGID_7_);enable-background:new    ;}
	.st11{fill:#231F20;}
	.st12{fill:url(#SVGID_8_);}
	.st13{fill:url(#SVGID_9_);}
	.st14{fill:url(#SVGID_10_);}
	.st15{fill:url(#SVGID_11_);}
	.st16{fill:#FFFFFF;}
</style>
<rect class="st0" width="48" height="48"/>
<g>
	<g>
		
			<linearGradient id="SVGID_1_" gradientUnits="userSpaceOnUse" x1="-1521.166" y1="31.8672" x2="-1511.4919" y2="31.8672" gradientTransform="matrix(1 0 0 -1 1529.266 50)">
			<stop  offset="0" style="stop-color:#FD6400"/>
			<stop  offset="0.5" style="stop-color:#DA0001"/>
			<stop  offset="1" style="stop-color:#AD0000"/>
		</linearGradient>
		<path class="st1" d="M17.7,18.3L13.3,5.9c0,0-5.2,9.8-5.2,24.4C11.4,31.4,17.8,18.3,17.7,18.3z"/>
		<g class="st2">
			<path class="st3" d="M8.3,30.3c-0.1,0-0.1,0-0.2,0C8.2,30.3,8.2,30.4,8.3,30.3z"/>
			<path class="st3" d="M17.8,18.4c0,0-4.9,10.2-8.4,11.8c1.5-1.3,0.3-7.1,0.7-7.9c4.4-8.1,3.2-16.4,3.2-16.4L17.8,18.4z"/>
		</g>
		
			<linearGradient id="SVGID_2_" gradientUnits="userSpaceOnUse" x1="-1511.8999" y1="29.4947" x2="-1487.3417" y2="58.4607" gradientTransform="matrix(1 0 0 -1 1529.266 50)">
			<stop  offset="0" style="stop-color:#FD6400"/>
			<stop  offset="0.5" style="stop-color:#DA0001"/>
			<stop  offset="1" style="stop-color:#AD0000"/>
		</linearGradient>
		<path class="st4" d="M26.9,19.2c-2.4,3.9-14.3,9.8-18.5,8C12.3,9.3,29,2,29,2S27,10,26.9,19.2z"/>
		<path class="st5" d="M29,2c0,0-2,8-2.1,17.2c-1.3,2.2-5.6,5-9.8,6.7C18.5,13.6,29,2,29,2z"/>
		
			<linearGradient id="SVGID_3_" gradientUnits="userSpaceOnUse" x1="-1577.7039" y1="201.1094" x2="-1570.9044" y2="201.1094" gradientTransform="matrix(0.9871 -0.1602 -0.1602 -0.9871 1610.7679 -46.1986)">
			<stop  offset="0" style="stop-color:#FFFF00;stop-opacity:0"/>
			<stop  offset="1" style="stop-color:#FFFF00"/>
		</linearGradient>
		<path class="st6" d="M27.4,3.8l-5.2,7.3C19.2,9.3,27.4,3.8,27.4,3.8z"/>
		
			<radialGradient id="SVGID_4_" cx="-1529.8752" cy="0.9284" r="32.9387" gradientTransform="matrix(0.9843 0 0 -0.9787 1530.4486 33.6287)" gradientUnits="userSpaceOnUse">
			<stop  offset="0" style="stop-color:#FDAD01"/>
			<stop  offset="0.5" style="stop-color:#FD7D00"/>
			<stop  offset="1" style="stop-color:#E40100"/>
		</radialGradient>
		<path class="st7" d="M48.1,20.6c-1,8.9-3.4,27.4-22.2,27.4c-4.7,0-9.2-1.8-12.6-5.2c-6.9-6.9-7-18.1,0-25C22.2,9,48.1,2,48.1,2
			c-1.6,12.2-3.4,21.3-3.4,21.3S46.3,22.3,48.1,20.6z"/>
		
			<linearGradient id="SVGID_5_" gradientUnits="userSpaceOnUse" x1="-1516.979" y1="18.9457" x2="-1477.5656" y2="43.8853" gradientTransform="matrix(1 0 0 -1 1529.266 50)">
			<stop  offset="0" style="stop-color:#FFFF00;stop-opacity:0"/>
			<stop  offset="1" style="stop-color:#FFFF00"/>
		</linearGradient>
		<path class="st8" d="M13.9,43.3c-0.2-0.1-0.4-0.3-0.6-0.5c-6.9-6.9-7-18.1,0-25C22.2,9,48.1,2,48.1,2S24.5,12.8,15.6,21.6
			C10,27.1,9.4,35.2,13.9,43.3z"/>
		
			<linearGradient id="SVGID_6_" gradientUnits="userSpaceOnUse" x1="-1498.2351" y1="37.8" x2="-1489.0341" y2="37.8" gradientTransform="matrix(1 0 0 -1 1529.266 50)">
			<stop  offset="0" style="stop-color:#FFFF00;stop-opacity:0"/>
			<stop  offset="1" style="stop-color:#FFFF00"/>
		</linearGradient>
		<path class="st9" d="M40.2,7.9l-8.5,8.6C28.1,13.5,40.2,7.9,40.2,7.9z"/>
		
			<linearGradient id="SVGID_7_" gradientUnits="userSpaceOnUse" x1="-616.5485" y1="-603.6083" x2="-607.4922" y2="-603.6083" gradientTransform="matrix(-0.3177 -0.9482 0.9482 -0.3177 423.3699 -745.7836)">
			<stop  offset="0" style="stop-color:#FF0000;stop-opacity:0"/>
			<stop  offset="1" style="stop-color:#FF0000"/>
		</linearGradient>
		<path class="st10" d="M48.1,20.6l-5.5,10.7C46.6,33.7,48.1,20.6,48.1,20.6z"/>
	</g>
	<g>
		<g>
			<ellipse class="st11" cx="19.6" cy="26.5" rx="2.5" ry="3.5"/>
		</g>
		<g>
			<ellipse class="st11" cx="32.6" cy="26.5" rx="2.5" ry="3.5"/>
		</g>
		<path class="st11" d="M15.1,30h-2c0,7.2,5.9,13,13,13s13-5.8,13-13h-2c0,6.2-4.9,11-11,11S15.1,36.2,15.1,30z"/>
	</g>
</g>
<g>
	<linearGradient id="SVGID_8_" gradientUnits="userSpaceOnUse" x1="5.8757" y1="16.0021" x2="25.2115" y2="16.0021">
		<stop  offset="0" style="stop-color:#FD8600"/>
		<stop  offset="1" style="stop-color:#A20000"/>
	</linearGradient>
	<path class="st12" d="M24.8,3.4c0,0,0.4,2,0.4,2c-0.2,0-0.9,3-1,3.3c-0.3,1.1-0.7,2.2-1,3.3c-1.8,6.2-5.4,11.6-11.3,14.4
		c-1.6,0.8-3.2,1.4-4.7,2.1c-0.5-0.2-1.4-0.5-1.4-0.5"/>
	<linearGradient id="SVGID_9_" gradientUnits="userSpaceOnUse" x1="13.9066" y1="-0.1019" x2="-0.3031" y2="24.51">
		<stop  offset="0" style="stop-color:#FED194"/>
		<stop  offset="1" style="stop-color:#A20000"/>
	</linearGradient>
	<path class="st13" d="M14.1,0L4.4,2.1c0,0-3.9,8.5-4.4,15.3c-0.5,6.8,5.8,10.7,5.8,10.7l0,0C6.3,11.1,12.2,2.4,14.1,0L14.1,0z"/>
	<linearGradient id="SVGID_10_" gradientUnits="userSpaceOnUse" x1="21.1362" y1="1.2937" x2="5.7285" y2="27.9805">
		<stop  offset="0" style="stop-color:#FD8600"/>
		<stop  offset="1" style="stop-color:#A20000"/>
	</linearGradient>
	<path class="st14" d="M14.1,0c-1.9,2.4-7.8,11.1-8.2,28.1l7.3-3.8c3.8-2.2,6.7-5.7,8.2-9.9l3.5-10.9L14.1,0z"/>
	<g>
		<linearGradient id="SVGID_11_" gradientUnits="userSpaceOnUse" x1="11.8256" y1="7.5133" x2="11.8256" y2="20.144">
			<stop  offset="0" style="stop-color:#AA3B00"/>
			<stop  offset="1" style="stop-color:#6B0000"/>
		</linearGradient>
		<polygon class="st15" points="6.6,20.1 3.8,12.1 5.2,11.6 7.2,17.6 18.9,7.5 19.8,8.6 		"/>
	</g>
	<g>
		<polygon class="st16" points="6.6,19 3.8,11 5.2,10.5 7.2,16.5 18.9,6.4 19.8,7.5 		"/>
	</g>
</g>
</svg>
