<svg xmlns="http://www.w3.org/2000/svg" width="24" height="24" viewBox="0 0 24 24">
    <defs>
        <style>
            .cls-1{fill:none}.cls-2{fill:#0288d1}
        </style>
    </defs>
    <g id="ic_timer" transform="translate(-129 -1035)">
        <path id="Rectangle_1486" d="M0 0h24v24H0z" class="cls-1" data-name="Rectangle 1486" transform="translate(129 1035)"/>
        <g id="Group_1982" data-name="Group 1982" transform="translate(179 1022)">
            <path id="Path_38503" d="M-29.516 22.977A8.836 8.836 0 0 1-29 26a8.974 8.974 0 0 1-2.625 6.375A8.969 8.969 0 0 1-38 35a8.966 8.966 0 0 1-6.375-2.625A8.966 8.966 0 0 1-47 26a9 9 0 0 1 2.625-6.352A8.927 8.927 0 0 1-38 17a8.505 8.505 0 0 1 3.023.539 9.48 9.48 0 0 1 2.6 1.477l1.406-1.453a14.809 14.809 0 0 1 1.406 1.406l-1.406 1.453a8.408 8.408 0 0 1 1.455 2.555zm-3.515 7.992A6.9 6.9 0 0 0-31.016 26a6.842 6.842 0 0 0-2.015-4.922A7.067 7.067 0 0 0-38 19.016a7.067 7.067 0 0 0-4.969 2.062A6.838 6.838 0 0 0-44.984 26a6.9 6.9 0 0 0 2.015 4.969A7.067 7.067 0 0 0-38 33.031a7.067 7.067 0 0 0 4.969-2.062zM-35 16.016h-6V14h6zm-3.984 5.015h1.968v6h-1.968z" class="cls-2" data-name="Path 38503"/>
        </g>
    </g>
</svg>
