<svg xmlns="http://www.w3.org/2000/svg" id="ic_unblock" width="24" height="24" viewBox="0 0 24 24">
    <defs>
        <style>
            .cls-1,.cls-2{fill:#25d366}.cls-1{opacity:0}
        </style>
    </defs>
    <path id="Rectangle_1154" d="M0 0h24v24H0z" class="cls-1" data-name="Rectangle 1154"/>
    <g id="Group_1584" data-name="Group 1584">
        <path id="Path_37485" d="M18.016 8.016a2 2 0 0 1 1.968 1.968v10.032a2 2 0 0 1-1.968 1.968h-12a1.944 1.944 0 0 1-1.43-.586A1.889 1.889 0 0 1 4 20.016V9.984A1.889 1.889 0 0 1 4.586 8.6a1.944 1.944 0 0 1 1.43-.586h9.093V6a3.121 3.121 0 0 0-3.117-3.094 2.924 2.924 0 0 0-2.179.914A3.016 3.016 0 0 0 8.922 6H7a4.825 4.825 0 0 1 1.477-3.539A4.827 4.827 0 0 1 12.016.984a4.75 4.75 0 0 1 3.515 1.477A4.865 4.865 0 0 1 16.984 6v2.016zm0 12V9.984h-12v10.032zM13.4 16.43a1.98 1.98 0 0 1-2.812 0 2.038 2.038 0 0 1 0-2.86 1.98 1.98 0 0 1 2.812 0 2.038 2.038 0 0 1 0 2.86z" class="cls-2" data-name="Path 37485"/>
    </g>
</svg>
