<?xml version="1.0" encoding="UTF-8" standalone="no"?>
<!-- Created with Inkscape (http://www.inkscape.org/) -->

<svg
   xmlns:dc="http://purl.org/dc/elements/1.1/"
   xmlns:cc="http://creativecommons.org/ns#"
   xmlns:rdf="http://www.w3.org/1999/02/22-rdf-syntax-ns#"
   xmlns:svg="http://www.w3.org/2000/svg"
   xmlns="http://www.w3.org/2000/svg"
   xmlns:sodipodi="http://sodipodi.sourceforge.net/DTD/sodipodi-0.dtd"
   xmlns:inkscape="http://www.inkscape.org/namespaces/inkscape"
   width="20"
   height="20"
   viewBox="0 0 20 20"
   id="svg8101"
   version="1.1"
   inkscape:version="0.91 r13725"
   sodipodi:docname="icon_powerbutton.svg">
  <defs
     id="defs8103" />
  <sodipodi:namedview
     id="base"
     pagecolor="#ffffff"
     bordercolor="#666666"
     borderopacity="1.0"
     inkscape:pageopacity="0.0"
     inkscape:pageshadow="2"
     inkscape:zoom="5.6"
     inkscape:cx="33.964574"
     inkscape:cy="10.835034"
     inkscape:document-units="px"
     inkscape:current-layer="layer1"
     showgrid="false"
     units="px"
     inkscape:window-width="1631"
     inkscape:window-height="1026"
     inkscape:window-x="49"
     inkscape:window-y="24"
     inkscape:window-maximized="1" />
  <metadata
     id="metadata8106">
    <rdf:RDF>
      <cc:Work
         rdf:about="">
        <dc:format>image/svg+xml</dc:format>
        <dc:type
           rdf:resource="http://purl.org/dc/dcmitype/StillImage" />
        <dc:title></dc:title>
      </cc:Work>
    </rdf:RDF>
  </metadata>
  <g
     inkscape:label="Layer 1"
     inkscape:groupmode="layer"
     id="layer1"
     transform="translate(0,-1032.3622)">
    <g
       id="g12589"
       transform="translate(305,510)"
       style="fill:#939396;fill-opacity:1">
      <path
         d="m -295,534.0622 c -0.6,0 -1.2,-0.5 -1.2,-1.1 l 0,-9.5 c 0,-0.6 0.6,-1.1 1.2,-1.1 0.6,0 1.2,0.5 1.2,1.1 l 0,9.4 c 0,0.7 -0.6,1.2 -1.2,1.2 z"
         id="path5"
         style="fill:#939396;fill-opacity:1"
         inkscape:connector-curvature="0" />
      <path
         d="m -291.5,524.0622 0,2.4 c 2.4,1.2 4.1,3.6 4.1,6.4 0,4 -3.4,7.2 -7.6,7.2 -4.2,0 -7.6,-3.2 -7.6,-7.2 0,-2.8 1.7,-5.2 4.1,-6.4 l 0,-2.4 c -3.8,1.4 -6.5,4.8 -6.5,8.9 0,5.2 4.5,9.4 10,9.4 5.5,0 10,-4.2 10,-9.4 0,-4.1 -2.7,-7.5 -6.5,-8.9 z"
         id="path7"
         style="fill:#939396;fill-opacity:1"
         inkscape:connector-curvature="0" />
    </g>
  </g>
</svg>
