<svg xmlns="http://www.w3.org/2000/svg" width="48" height="24" viewBox="0 0 48 24">
    <defs>
        <style>
            .cls-1{fill:#0288d1}.cls-2{fill:#fff}
        </style>
    </defs>
    <g id="ic_plus_48" transform="translate(-526 -486)">
        <g id="Group_1583" data-name="Group 1583" transform="translate(526 486)">
            <rect id="Rectangle_1115" width="48" height="24" class="cls-1" data-name="Rectangle 1115" rx="8"/>
            <path id="Path_37439" d="M-9.456-4.9a.667.667 0 0 1 .756-.751h3.319a3.342 3.342 0 0 1 1.3.247 2.855 2.855 0 0 1 1.008.7 3.248 3.248 0 0 1 .651 1.07 3.813 3.813 0 0 1 .233 1.358 3.87 3.87 0 0 1-.232 1.363A3.233 3.233 0 0 1-3.072.163 2.932 2.932 0 0 1-4.08.87a3.263 3.263 0 0 1-1.3.254h-1.676V3.4a.667.667 0 0 1-.754.754h-.89a.667.667 0 0 1-.756-.754zm3.579 3.966a1.143 1.143 0 0 0 .939-.377 1.477 1.477 0 0 0 .309-.967 1.443 1.443 0 0 0-.3-.953 1.109 1.109 0 0 0-.905-.363h-1.222v2.66zM-.665-4.9a.667.667 0 0 1 .754-.754h.892a.667.667 0 0 1 .754.754v7h3.25a.667.667 0 0 1 .754.754V3.4a.667.667 0 0 1-.754.754H.089A.667.667 0 0 1-.665 3.4zm7.406 0a.667.667 0 0 1 .754-.754h.891a.667.667 0 0 1 .754.754V.547a1.475 1.475 0 0 0 .46 1.18 1.831 1.831 0 0 0 1.241.4 1.831 1.831 0 0 0 1.241-.4 1.475 1.475 0 0 0 .46-1.18V-4.9a.667.667 0 0 1 .754-.754h.891a.667.667 0 0 1 .754.754V.547a3.829 3.829 0 0 1-.295 1.515 3.482 3.482 0 0 1-.83 1.193 3.806 3.806 0 0 1-1.289.782 4.759 4.759 0 0 1-1.673.281 4.858 4.858 0 0 1-1.694-.281 3.794 3.794 0 0 1-1.3-.782 3.482 3.482 0 0 1-.83-1.193A3.829 3.829 0 0 1 6.741.547zM16.9 3.345a1.055 1.055 0 0 1-.192-.185.622.622 0 0 1-.117-.233.584.584 0 0 1 0-.281 1 1 0 0 1 .171-.343l.425-.617a.686.686 0 0 1 .453-.336.972.972 0 0 1 .59.158l.295.165q.171.1.4.2a2.92 2.92 0 0 0 .5.171 2.426 2.426 0 0 0 .59.069 1.274 1.274 0 0 0 .789-.2.6.6 0 0 0 .254-.487.708.708 0 0 0-.322-.583 4.179 4.179 0 0 0-.8-.453q-.48-.213-1.042-.453a5.094 5.094 0 0 1-1.042-.6 3.174 3.174 0 0 1-.8-.871 2.372 2.372 0 0 1-.322-1.282 2.792 2.792 0 0 1 .267-1.227 2.882 2.882 0 0 1 .734-.953 3.266 3.266 0 0 1 1.111-.61 4.4 4.4 0 0 1 1.385-.213 4.921 4.921 0 0 1 1.577.24 4.422 4.422 0 0 1 1.07.487.76.76 0 0 1 .343.473.913.913 0 0 1-.11.555l-.329.645q-.206.4-.473.4a1.132 1.132 0 0 1-.555-.144q-.343-.165-.706-.309a2.28 2.28 0 0 0-.843-.144 1.325 1.325 0 0 0-.823.2.6.6 0 0 0-.247.487.7.7 0 0 0 .322.59 4.185 4.185 0 0 0 .8.439q.48.206 1.042.432a4.815 4.815 0 0 1 1.042.576 3.083 3.083 0 0 1 .8.864 2.372 2.372 0 0 1 .322 1.282 3.078 3.078 0 0 1-.226 1.173 2.781 2.781 0 0 1-.665.974 3.213 3.213 0 0 1-1.083.665 4.081 4.081 0 0 1-1.467.247 4.991 4.991 0 0 1-.994-.1 6.432 6.432 0 0 1-.878-.24 5.418 5.418 0 0 1-.727-.315 3.53 3.53 0 0 1-.519-.313z" class="cls-2" data-name="Path 37439" transform="translate(17.246 12.673)"/>
        </g>
    </g>
</svg>

