<svg xmlns="http://www.w3.org/2000/svg" width="28" height="14" viewBox="0 0 28 14">
    <defs>
        <style>
            .cls-1{fill:#0288d1}.cls-2{fill:#fff}
        </style>
    </defs>
    <g id="ic_plus" transform="translate(-1179 -580)">
        <rect id="Rectangle_1115" width="28" height="14" class="cls-1" data-name="Rectangle 1115" rx="4" transform="translate(1179 580)"/>
        <path id="Path_37439" d="M-9.456-5.28a.389.389 0 0 1 .44-.44h1.936a1.949 1.949 0 0 1 .76.144 1.665 1.665 0 0 1 .588.408 1.894 1.894 0 0 1 .38.624 2.224 2.224 0 0 1 .136.792 2.257 2.257 0 0 1-.136.8 1.886 1.886 0 0 1-.38.628 1.71 1.71 0 0 1-.588.412 1.9 1.9 0 0 1-.76.148h-.976V-.44A.389.389 0 0 1-8.5 0h-.52a.389.389 0 0 1-.44-.44zm2.088 2.312a.667.667 0 0 0 .548-.22.862.862 0 0 0 .18-.564.842.842 0 0 0-.176-.556.647.647 0 0 0-.528-.212h-.712v1.552zm3.04-2.312a.389.389 0 0 1 .44-.44h.52a.389.389 0 0 1 .44.44v4.08h1.9a.389.389 0 0 1 .44.44v.32a.389.389 0 0 1-.44.44h-2.86a.389.389 0 0 1-.44-.44zm4.32 0a.389.389 0 0 1 .44-.44h.52a.389.389 0 0 1 .44.44v3.18a.861.861 0 0 0 .268.688 1.068 1.068 0 0 0 .724.232 1.068 1.068 0 0 0 .724-.232.861.861 0 0 0 .268-.688v-3.18a.389.389 0 0 1 .44-.44h.52a.389.389 0 0 1 .44.44v3.18a2.233 2.233 0 0 1-.176.88 2.031 2.031 0 0 1-.484.7 2.22 2.22 0 0 1-.752.456A2.776 2.776 0 0 1 2.392.1 2.834 2.834 0 0 1 1.4-.068a2.213 2.213 0 0 1-.752-.456 2.031 2.031 0 0 1-.484-.7A2.233 2.233 0 0 1-.008-2.1zM5.92-.472a.615.615 0 0 1-.112-.108.363.363 0 0 1-.068-.136.341.341 0 0 1 0-.164.581.581 0 0 1 .1-.2l.248-.36a.4.4 0 0 1 .264-.2.567.567 0 0 1 .344.092l.172.1q.1.056.232.116a1.7 1.7 0 0 0 .292.1 1.415 1.415 0 0 0 .344.04.743.743 0 0 0 .46-.116.349.349 0 0 0 .148-.284.413.413 0 0 0-.188-.34 2.437 2.437 0 0 0-.468-.268q-.28-.124-.608-.264a2.972 2.972 0 0 1-.608-.348A1.851 1.851 0 0 1 6-3.316a1.384 1.384 0 0 1-.188-.748 1.629 1.629 0 0 1 .156-.716 1.681 1.681 0 0 1 .432-.556 1.905 1.905 0 0 1 .648-.356 2.564 2.564 0 0 1 .808-.124 2.871 2.871 0 0 1 .92.14 2.58 2.58 0 0 1 .624.284.443.443 0 0 1 .2.276.532.532 0 0 1-.064.324l-.192.376q-.12.232-.276.236a.66.66 0 0 1-.324-.084q-.2-.1-.412-.18a1.33 1.33 0 0 0-.492-.084.773.773 0 0 0-.48.116.352.352 0 0 0-.144.284.41.41 0 0 0 .188.344 2.441 2.441 0 0 0 .468.256q.28.12.608.252a2.809 2.809 0 0 1 .608.336 1.8 1.8 0 0 1 .468.5 1.384 1.384 0 0 1 .188.748A1.8 1.8 0 0 1 9.612-1a1.622 1.622 0 0 1-.388.568 1.874 1.874 0 0 1-.632.388A2.381 2.381 0 0 1 7.736.1a2.912 2.912 0 0 1-.58-.06 3.752 3.752 0 0 1-.512-.14 3.161 3.161 0 0 1-.424-.184 2.059 2.059 0 0 1-.3-.188z" class="cls-2" data-name="Path 37439" transform="translate(1193 589.816)"/>
    </g>
</svg>
