<?xml version="1.0" encoding="utf-8"?>
<!-- Generator: Adobe Illustrator 23.0.0, SVG Export Plug-In . SVG Version: 6.00 Build 0)  -->
<svg version="1.1" id="Layer_1" xmlns="http://www.w3.org/2000/svg" xmlns:xlink="http://www.w3.org/1999/xlink" x="0px" y="0px"
	 viewBox="0 0 48.1 48" style="enable-background:new 0 0 48.1 48;" xml:space="preserve">
<style type="text/css">
	.st0{fill:none;}
	.st1{fill:url(#SVGID_1_);}
	.st2{opacity:0.1;}
	.st3{fill:#640000;}
	.st4{fill:url(#SVGID_2_);}
	.st5{opacity:0.1;fill:#640000;}
	.st6{opacity:0.3;fill:url(#SVGID_3_);}
	.st7{fill:url(#SVGID_4_);}
	.st8{opacity:0.4;fill:url(#SVGID_5_);}
	.st9{opacity:0.3;fill:url(#SVGID_6_);}
	.st10{opacity:0.5;fill:url(#SVGID_7_);}
	.st11{fill:#231F20;}
	.st12{fill:#FFD300;}
	.st13{fill:#FFFFFF;}
	.st14{fill:#FFE700;}
	.st15{fill:#FFBE00;}
</style>
<title>vpn_premium_active</title>
<g>
	<rect class="st0" width="48" height="48"/>
	<g>
		<g>
			<g>
				
					<linearGradient id="SVGID_1_" gradientUnits="userSpaceOnUse" x1="-211.2534" y1="17.141" x2="-201.5794" y2="17.141" gradientTransform="matrix(-1 0 0 1 -169.2534 0)">
					<stop  offset="0" style="stop-color:#FD6400"/>
					<stop  offset="0.5" style="stop-color:#DA0001"/>
					<stop  offset="1" style="stop-color:#AD0000"/>
				</linearGradient>
				<path class="st1" d="M42,29.3c0-14.6-5.2-24.4-5.2-24.4l-4.4,12.4C32.3,17.3,38.7,30.4,42,29.3z"/>
				<g class="st2">
					<path class="st3" d="M42,29.3c-0.1,0-0.1,0-0.2,0C41.9,29.4,41.9,29.3,42,29.3z"/>
					<path class="st3" d="M36.8,4.9c0,0-1.2,8.3,3.2,16.4c0.4,0.8-0.8,6.6,0.7,7.9c-3.5-1.6-8.4-11.8-8.4-11.8L36.8,4.9z"/>
				</g>
				
					<linearGradient id="SVGID_2_" gradientUnits="userSpaceOnUse" x1="-202.0071" y1="19.4885" x2="-177.4489" y2="-9.4775" gradientTransform="matrix(-1 0 0 1 -169.2534 0)">
					<stop  offset="0" style="stop-color:#FD6400"/>
					<stop  offset="0.5" style="stop-color:#DA0001"/>
					<stop  offset="1" style="stop-color:#AD0000"/>
				</linearGradient>
				<path class="st4" d="M21.1,1c0,0,16.7,7.3,20.6,25.2c-4.2,1.8-16.1-4.1-18.5-8C23.1,9,21.1,1,21.1,1z"/>
				<path class="st5" d="M33,24.9c-4.2-1.7-8.5-4.5-9.8-6.7C23.1,9,21.1,1,21.1,1S31.6,12.6,33,24.9z"/>
				
					<linearGradient id="SVGID_3_" gradientUnits="userSpaceOnUse" x1="-218.5456" y1="-43.0568" x2="-211.7418" y2="-43.0568" gradientTransform="matrix(-0.9871 -0.1602 -0.1602 0.9871 -193.7218 14.4891)">
					<stop  offset="0" style="stop-color:#FFFF00;stop-opacity:0"/>
					<stop  offset="1" style="stop-color:#FFFF00"/>
				</linearGradient>
				<path class="st6" d="M27.9,10.1l-5.2-7.3C22.7,2.8,30.9,8.3,27.9,10.1z"/>
				
					<radialGradient id="SVGID_4_" cx="-209.5644" cy="40.2367" r="32.9387" gradientTransform="matrix(-0.9843 0 0 0.9787 -180.7666 -7.6596)" gradientUnits="userSpaceOnUse">
					<stop  offset="0" style="stop-color:#FDAD01"/>
					<stop  offset="0.5" style="stop-color:#FD7D00"/>
					<stop  offset="1" style="stop-color:#E40100"/>
				</radialGradient>
				<path class="st7" d="M5.4,22.3c0,0-1.8-9.1-3.4-21.3c0,0,25.9,7,34.8,15.8c7,6.9,6.9,18.1,0,25c-3.4,3.4-7.9,5.2-12.6,5.2
					C5.4,47,3,28.5,2,19.6C3.8,21.3,5.4,22.3,5.4,22.3z"/>
				
					<linearGradient id="SVGID_5_" gradientUnits="userSpaceOnUse" x1="-207.0467" y1="30.0855" x2="-167.6332" y2="5.1459" gradientTransform="matrix(-1 0 0 1 -169.2534 0)">
					<stop  offset="0" style="stop-color:#FFFF00;stop-opacity:0"/>
					<stop  offset="1" style="stop-color:#FFFF00"/>
				</linearGradient>
				<path class="st8" d="M34.5,20.6C25.6,11.8,2,1,2,1s25.9,7,34.8,15.8c7,6.9,6.9,18.1,0,25c-0.2,0.2-0.4,0.4-0.6,0.5
					C40.7,34.2,40.1,26.1,34.5,20.6z"/>
				
					<linearGradient id="SVGID_6_" gradientUnits="userSpaceOnUse" x1="-188.3275" y1="11.1765" x2="-179.1265" y2="11.1765" gradientTransform="matrix(-1 0 0 1 -169.2534 0)">
					<stop  offset="0" style="stop-color:#FFFF00;stop-opacity:0"/>
					<stop  offset="1" style="stop-color:#FFFF00"/>
				</linearGradient>
				<path class="st9" d="M18.4,15.5L9.9,6.9C9.9,6.9,22,12.5,18.4,15.5z"/>
				
					<linearGradient id="SVGID_7_" gradientUnits="userSpaceOnUse" x1="175.6887" y1="280.1148" x2="184.7499" y2="280.1148" gradientTransform="matrix(0.3177 -0.9482 0.9482 0.3177 -318.2177 107.1927)">
					<stop  offset="0" style="stop-color:#FF0000;stop-opacity:0"/>
					<stop  offset="1" style="stop-color:#FF0000"/>
				</linearGradient>
				<path class="st10" d="M7.5,30.3L2,19.6C2,19.6,3.5,32.7,7.5,30.3z"/>
			</g>
			<g>
				<g>
					<ellipse class="st11" cx="30.5" cy="25.5" rx="2.5" ry="3.5"/>
				</g>
				<g>
					<ellipse class="st11" cx="17.5" cy="25.5" rx="2.5" ry="3.5"/>
				</g>
				<path class="st11" d="M24,40c-6.1,0-11-4.8-11-11h-2c0,7.2,5.9,13,13,13s13-5.8,13-13h-2C35,35.2,30.1,40,24,40z"/>
			</g>
		</g>
		<g>
			<circle class="st12" cx="38" cy="10" r="9"/>
			<polygon class="st13" points="43,9 39,9 39,5 37,5 37,9 33,9 33,11 37,11 37,15 39,15 39,11 43,11 			"/>
			<path class="st14" d="M38,2c5,0,9,3.6,9,8c0-5-4-9-9-9s-9,4-9,9C29,5.6,33,2,38,2z"/>
			<path class="st15" d="M38,18c-5,0-9-3.6-9-8c0,5,4,9,9,9s9-4,9-9C47,14.4,43,18,38,18z"/>
		</g>
	</g>
</g>
</svg>
