<svg xmlns="http://www.w3.org/2000/svg" id="netflix" width="110" height="30" viewBox="0 0 110 30">
    <defs>
        <style>
            .cls-1{fill:#e11401}
        </style>
    </defs>
    <path id="Path_105" d="M15.125 0h-4.583v16.846C8.479 10.615 6.417 6.462 4.354 0H0v30c1.6-.231 3.208-.462 4.583-.692V12.923c2.063 6.231 3.437 9.923 5.5 15.692 1.6-.231 3.438-.462 5.042-.692V0" class="cls-1" data-name="Path 105"/>
    <path id="Path_106" d="M21.333 0H8.5v27.692c4.354-.462 8.479-.692 12.833-.923v-4.615c-2.75.231-5.5.462-8.25.462v-6.924h6.188v-4.615h-6.188V4.846h8.25V0" class="cls-1" data-name="Path 106" transform="translate(10.979)"/>
    <path id="Path_107" d="M29.708 0H15.5v4.615h4.813v21.693a29.017 29.017 0 0 0 4.583-.231V4.615h4.813V0" class="cls-1" data-name="Path 107" transform="translate(20.021)"/>
    <path id="Path_108" d="M35.833 0H23v26.077h4.583V15.231h6.187v-4.616h-6.187v-6h8.479A31.141 31.141 0 0 1 35.833 0" class="cls-1" data-name="Path 108" transform="translate(29.708)"/>
    <path id="Path_109" d="M29.9 0v26.308c4.125.231 8.479.231 12.6.692v-4.615c-2.521-.231-5.271-.231-8.021-.462V0H29.9" class="cls-1" data-name="Path 109" transform="translate(38.621)"/>
    <path id="Path_110" d="M37 0v27.231c1.6.231 2.979.231 4.583.462V0H37" class="cls-1" data-name="Path 110" transform="translate(47.792)"/>
    <path id="Path_111" d="M41.058 0c1.833 4.615 3.438 9.231 5.5 14.077-2.062 4.615-3.9 9.231-5.958 13.846l4.812.692c1.146-3 2.292-5.077 3.437-8.077 1.146 3.231 2.292 5.538 3.438 8.769 1.6.231 3.667.462 5.271.692A740.249 740.249 0 0 1 51.6 14.077C53.662 9.462 55.5 4.846 57.558 0h-5.041c-1.146 3-2.062 5.077-3.208 7.846C47.933 4.846 47.246 3 46.1 0h-5.042" class="cls-1" data-name="Path 111" transform="translate(52.442)"/>
</svg>
