<svg width="284" height="142" xmlns="http://www.w3.org/2000/svg"><g fill="none" fill-rule="evenodd"><path d="M40.572 0H243.43C265.836 0 284 18.165 284 40.572v60.856C284 123.835 265.836 142 243.43 142H40.572C18.165 142 0 123.835 0 101.428V40.572C0 18.165 18.165 0 40.572 0" fill="#FF6400"/><path d="M130.983 88.138h-19.586V45.293a3.673 3.673 0 00-3.672-3.672h-7.345a3.673 3.673 0 00-3.673 3.672v51.414a3.673 3.673 0 003.673 3.672H130.983a3.673 3.673 0 003.673-3.672V91.81a3.673 3.673 0 00-3.673-3.672M65.492 69.776h-6.733V53.862h6.733a7.957 7.957 0 110 15.914M67.94 41.62H47.742a3.674 3.674 0 00-3.673 3.672v51.414a3.673 3.673 0 003.673 3.672h7.345a3.673 3.673 0 003.672-3.672v-14.69h9.181c11.156 0 20.198-9.044 20.198-20.198 0-11.156-9.042-20.198-20.198-20.198M186.07 41.62h-7.345a3.673 3.673 0 00-3.673 3.673V78.01c0 5.215-3.935 9.77-9.14 10.107-5.705.37-10.446-4.146-10.446-9.771V45.293a3.673 3.673 0 00-3.672-3.672h-7.345a3.673 3.673 0 00-3.673 3.672v31.241c0 13.275 10.324 24.582 23.59 25.054 13.928.495 25.376-10.65 25.376-24.467V45.293a3.673 3.673 0 00-3.673-3.672M239.198 75.324a18.66 18.66 0 00-4.852-5.173 29.16 29.16 0 00-6.303-3.476c-2.267-.91-4.368-1.78-6.303-2.606a25.516 25.516 0 01-4.852-2.649 4.242 4.242 0 01-1.948-3.56c0-1.16.555-2.25 1.492-2.936a8.027 8.027 0 014.976-1.201c1.741-.035 3.47.26 5.101.869a45.214 45.214 0 014.27 1.862 6.836 6.836 0 003.36.869c1.078-.028 2.031-.842 2.861-2.441l1.99-3.89a5.495 5.495 0 00.664-3.352 4.581 4.581 0 00-2.074-2.855 26.756 26.756 0 00-6.468-2.939 29.81 29.81 0 00-9.537-1.447 26.608 26.608 0 00-8.377 1.283 19.754 19.754 0 00-6.718 3.682 17.384 17.384 0 00-4.478 5.753 16.82 16.82 0 00-1.617 7.406 14.292 14.292 0 001.95 7.739 19.155 19.155 0 004.892 5.213 30.904 30.904 0 006.303 3.6c2.267.966 4.368 1.876 6.303 2.731a25.296 25.296 0 014.852 2.773 4.268 4.268 0 011.948 3.517 3.606 3.606 0 01-1.535 2.938 7.707 7.707 0 01-4.767 1.2 14.64 14.64 0 01-3.567-.414 17.522 17.522 0 01-3.027-1.034 32.828 32.828 0 01-2.406-1.2l-1.782-1.035a5.882 5.882 0 00-3.566-.95 4.144 4.144 0 00-2.737 2.067l-2.57 3.725a5.982 5.982 0 00-1.036 2.069 3.49 3.49 0 000 1.696c.132.513.372.993.703 1.408.338.42.729.795 1.162 1.117a21.37 21.37 0 003.11 1.945 32.564 32.564 0 004.395 1.902 38.84 38.84 0 005.308 1.45 30.34 30.34 0 006.013.62c3.025.05 6.033-.454 8.873-1.49a19.442 19.442 0 006.551-4.014 16.793 16.793 0 004.024-5.876 18.604 18.604 0 001.367-7.158 14.295 14.295 0 00-1.948-7.738" fill="#FFF"/></g></svg>

