<svg id="switch_big_Layer_1" xmlns="http://www.w3.org/2000/svg" viewBox="0 0 113.4 113.4">
  <style>
    .switch_big_0{fill:#25d366}.switch_big_1{fill:#fff}
  </style>
  <circle class="switch_big_0" cx="56.7" cy="56.7" r="56.7"/>
  <path class="switch_big_1" d="M74.4 24.8c-2-1.1-4.4-.4-5.5 1.6-1.1 2-.4 4.4 1.6 5.5 9 5 14.6 14.5 14.6 24.8C85 72.3 72.3 85 56.7 85S28.3 72.3 28.3 56.7c0-10.1 5.4-19.5 14.2-24.6 1.9-1.1 2.6-3.6 1.5-5.5s-3.6-2.6-5.5-1.5c-11.2 6.5-18.2 18.6-18.2 31.6 0 20.1 16.3 36.4 36.4 36.4s36.4-16.4 36.4-36.4c0-13.2-7.2-25.5-18.7-31.9z"/>
  <path class="switch_big_1" d="M56.2 60.7c2.2 0 4.5-1.8 4.5-4V24.3c0-2.2-2.3-4-4.5-4s-4.5 1.8-4.5 4v32.4c0 2.2 2.3 4 4.5 4z"/>
</svg>
