<svg id="thumbdown_Layer_1" xmlns="http://www.w3.org/2000/svg" viewBox="0 0 20 18">
  <style>
    .thumbdown_0{fill:#fff}
  </style>
  <path class="thumbdown_0" d="M20 9.6c-.2-.7-1.5-6.2-1.9-7.2-.4-1.1-1.6-1.6-2.6-1.6H9.4l-.1.1c-.6.2-1.5.6-2.2.8v-.4C7.1.4 6.5 0 5.9 0H1.4C.6 0 0 .6 0 1.3v9.1c0 .8.6 1.6 1.4 1.6H6c.5 0 1-.4 1.1-1.1l1.8 3.2c0 .7 0 2 .2 2.6.2.7 1.1 1.3 2 1.3.7 0 1.9-.2 2.7-2 .6-1.3.6-2.4.5-3.2h4c.3 0 .7-.1 1.1-.6.4-.6.7-1.9.6-2.6zm-14.6.7H1.7V1.7h3.8l-.1 8.6zm12.9-.3c0 .2-.2.9-.4 1.1h-4.7c-.3-.1-.6-.1-.9.1-.3.3-.4.7-.2 1 0 .1.1.2.2.3.2.3.5 1.2-.2 2.7-.2.4-.5.9-1 1-.3 0-.5-.1-.6-.2-.1-.3-.1-1.3-.1-2.2v-.2L8.2 9.5 7.1 9V3.6c.5-.2 1.8-.7 2.6-1h5.7s.9 0 1 .5c.4.6 1.3 4.5 1.9 6.9z"/>
</svg>
