<svg id="thumbup_Layer_1" xmlns="http://www.w3.org/2000/svg" viewBox="0 0 20 18">
  <style>
    .thumbup_0{fill:#fff}
  </style>
  <path class="thumbup_0" d="M19.2 5.8c-.4-.5-.8-.6-1.1-.6h-4c.1-.8.1-1.8-.5-3.2-.8-1.8-2-2-2.7-2-.9 0-1.8.6-2 1.3-.1.6-.1 2-.1 2.6L7.1 7.1C6.9 6.4 6.4 6 5.9 6H1.4C.6 6 0 6.8 0 7.5v9.1c0 .8.6 1.4 1.4 1.4H6c.6 0 1.2-.4 1.2-1.3v-.4c.7.3 1.6.6 2.2.8l.1.1h6c1 0 2.2-.4 2.6-1.6.4-1 1.7-6.6 1.9-7.2.1-.7-.2-2-.8-2.6zM5.4 16.3H1.7V7.7h3.8l-.1 8.6zM16.5 15c-.2.5-1 .5-1 .5H9.7c-.8-.3-2.1-.8-2.6-1V9l1.1-.5 2.3-4.1v-.2c0-.9 0-1.9.1-2.2.1-.1.4-.3.6-.2.5 0 .8.6 1 1 .7 1.5.3 2.4.2 2.7-.1.1-.1.2-.2.3-.2.3-.1.8.2 1 .2.1.6.2.8.1H18c.2.3.4.9.4 1.1-.7 2.4-1.6 6.3-1.9 7z"/>
</svg>
