<svg xmlns="http://www.w3.org/2000/svg" width="100" height="100" viewBox="0 0 100 100">
    <defs>
        <style>
            .cls-1{fill:#25d366}.cls-2{fill:#fff}
        </style>
    </defs>
    <g id="unblock_large" transform="translate(-24 -4)">
        <circle id="Ellipse_13" cx="50" cy="50" r="50" class="cls-1" data-name="Ellipse 13" transform="translate(24 4)"/>
        <g id="Group_17" data-name="Group 17" transform="translate(52.571 20.517)">
            <g id="Group_16" data-name="Group 16">
                <path id="Path_41" d="M110.857 101.143H68V69h42.857zm-38.839-4.018h34.821V73.018H72.018z" class="cls-2" data-name="Path 41" transform="translate(-68 -42.883)"/>
                <path id="Path_42" d="M108.143 56.116h-4.018V46.071a12.054 12.054 0 0 0-24.107 0H76a15.885 15.885 0 0 1 3.817-10.379 16.061 16.061 0 0 1 28.326 10.379z" class="cls-2" data-name="Path 42" transform="translate(-70.643 -29.999)"/>
            </g>
            <path id="Path_43" d="M101.7 87.348a3.348 3.348 0 1 0-6.7 0 3.257 3.257 0 0 0 2.277 3.152l-1.607 4.884h5.357L99.42 90.5a3.257 3.257 0 0 0 2.28-3.152z" class="cls-2" data-name="Path 43" transform="translate(-76.92 -47.839)"/>
        </g>
        <path id="Path_47" d="M52.339 48L51 50.679l13.393 4.688z" class="cls-2" data-name="Path 47" transform="translate(-9.813 -15.429)"/>
        <path id="Path_48" d="M57 61v2.679l10.045-2.009z" class="cls-2" data-name="Path 48" transform="translate(-11.795 -19.723)"/>
    </g>
</svg>
